G04*
G04 #@! TF.GenerationSoftware,Altium Limited,Altium Designer,20.2.3 (150)*
G04*
G04 Layer_Color=39423*
%FSLAX44Y44*%
%MOMM*%
G71*
G04*
G04 #@! TF.SameCoordinates,D726A9E5-FFE7-4BE0-B253-410C82E39F17*
G04*
G04*
G04 #@! TF.FilePolarity,Positive*
G04*
G01*
G75*
%ADD12C,0.1000*%
D12*
X108839Y15937D02*
G03*
X-108839Y15937I-108839J-15937D01*
G01*
X11151Y-109433D02*
G03*
X108839Y-15937I-11151J109433D01*
G01*
X-108839D02*
G03*
X-11151Y-109433I108839J15937D01*
G01*
X-104425Y-10241D02*
G03*
X-104425Y10241I-1098J10241D01*
G01*
Y-10241D02*
G03*
X-104425Y10241I-1098J10241D01*
G01*
X-108839Y15937D02*
G03*
X-104425Y10241I4947J-724D01*
G01*
X-108839Y15937D02*
G03*
X-104425Y10241I4947J-724D01*
G01*
Y-10241D02*
G03*
X-108839Y-15937I533J-4972D01*
G01*
X-104425Y-10241D02*
G03*
X-108839Y-15937I533J-4972D01*
G01*
X6209Y-106768D02*
G03*
X-6209Y-106768I-6209J-3232D01*
G01*
X6209D02*
G03*
X-6209Y-106768I-6209J-3232D01*
G01*
X6209D02*
G03*
X11151Y-109433I4435J2309D01*
G01*
X6209Y-106768D02*
G03*
X11151Y-109433I4435J2309D01*
G01*
X-11151D02*
G03*
X-6209Y-106768I507J4974D01*
G01*
X-11151Y-109433D02*
G03*
X-6209Y-106768I507J4974D01*
G01*
X104425Y10241D02*
G03*
X104425Y-10241I1098J-10241D01*
G01*
Y10241D02*
G03*
X104425Y-10241I1098J-10241D01*
G01*
Y10241D02*
G03*
X108839Y15937I-533J4972D01*
G01*
X104425Y10241D02*
G03*
X108839Y15937I-533J4972D01*
G01*
Y-15937D02*
G03*
X104425Y-10241I-4947J724D01*
G01*
X108839Y-15937D02*
G03*
X104425Y-10241I-4947J724D01*
G01*
M02*
