G04*
G04 #@! TF.GenerationSoftware,Altium Limited,Altium Designer,20.2.3 (150)*
G04*
G04 Layer_Color=8421504*
%FSLAX44Y44*%
%MOMM*%
G71*
G04*
G04 #@! TF.SameCoordinates,D726A9E5-FFE7-4BE0-B253-410C82E39F17*
G04*
G04*
G04 #@! TF.FilePolarity,Positive*
G04*
G01*
G75*
%ADD13R,0.5000X0.6000*%
%ADD14R,0.6000X0.5000*%
%ADD15R,1.2000X1.8000*%
%ADD16R,0.6000X1.5500*%
G36*
X27250Y8250D02*
X24250D01*
Y13250D01*
X27250D01*
Y8250D01*
D02*
G37*
G36*
X20750D02*
X17750D01*
Y13250D01*
X20750D01*
Y8250D01*
D02*
G37*
G36*
X14250D02*
X11250D01*
Y13250D01*
X14250D01*
Y8250D01*
D02*
G37*
G36*
X843Y8178D02*
X1243Y8134D01*
X1640Y8070D01*
X2034Y7986D01*
X2423Y7882D01*
X2806Y7760D01*
X3183Y7618D01*
X3552Y7457D01*
X3913Y7278D01*
X4264Y7082D01*
X4606Y6868D01*
X4935Y6637D01*
X5253Y6390D01*
X5559Y6128D01*
X5850Y5850D01*
X6128Y5559D01*
X6390Y5253D01*
X6637Y4935D01*
X6868Y4606D01*
X7082Y4264D01*
X7278Y3913D01*
X7457Y3552D01*
X7618Y3183D01*
X7760Y2806D01*
X7882Y2423D01*
X7986Y2034D01*
X8070Y1640D01*
X8134Y1243D01*
X8178Y843D01*
X8200Y500D01*
X5800D01*
X5768Y788D01*
X5726Y1055D01*
X5672Y1320D01*
X5605Y1581D01*
X5526Y1840D01*
X5435Y2094D01*
X5332Y2344D01*
X5218Y2589D01*
X5092Y2829D01*
X4956Y3062D01*
X4809Y3289D01*
X4651Y3508D01*
X4483Y3720D01*
X4306Y3924D01*
X4119Y4119D01*
X3924Y4306D01*
X3720Y4483D01*
X3508Y4651D01*
X3289Y4809D01*
X3062Y4956D01*
X2829Y5092D01*
X2589Y5218D01*
X2344Y5332D01*
X2094Y5435D01*
X1840Y5526D01*
X1581Y5605D01*
X1320Y5672D01*
X1055Y5726D01*
X788Y5768D01*
X500Y5800D01*
Y8200D01*
X843Y8178D01*
D02*
G37*
G36*
X-500Y5800D02*
X-788Y5768D01*
X-1055Y5726D01*
X-1320Y5672D01*
X-1581Y5605D01*
X-1840Y5526D01*
X-2094Y5435D01*
X-2344Y5332D01*
X-2589Y5218D01*
X-2829Y5092D01*
X-3062Y4956D01*
X-3289Y4809D01*
X-3508Y4651D01*
X-3720Y4483D01*
X-3924Y4306D01*
X-4119Y4119D01*
X-4306Y3924D01*
X-4483Y3720D01*
X-4651Y3508D01*
X-4809Y3289D01*
X-4956Y3062D01*
X-5092Y2829D01*
X-5218Y2589D01*
X-5332Y2344D01*
X-5435Y2094D01*
X-5526Y1840D01*
X-5605Y1581D01*
X-5672Y1320D01*
X-5726Y1055D01*
X-5768Y788D01*
X-5800Y500D01*
X-8200D01*
X-8178Y843D01*
X-8134Y1243D01*
X-8070Y1640D01*
X-7986Y2034D01*
X-7882Y2423D01*
X-7760Y2806D01*
X-7618Y3183D01*
X-7457Y3552D01*
X-7278Y3913D01*
X-7082Y4264D01*
X-6868Y4606D01*
X-6637Y4935D01*
X-6390Y5253D01*
X-6128Y5559D01*
X-5850Y5850D01*
X-5559Y6128D01*
X-5253Y6390D01*
X-4935Y6637D01*
X-4606Y6868D01*
X-4264Y7082D01*
X-3913Y7278D01*
X-3552Y7457D01*
X-3183Y7618D01*
X-2806Y7760D01*
X-2423Y7882D01*
X-2034Y7986D01*
X-1640Y8070D01*
X-1243Y8134D01*
X-843Y8178D01*
X-500Y8200D01*
Y5800D01*
D02*
G37*
G36*
X8178Y-843D02*
X8134Y-1243D01*
X8070Y-1640D01*
X7986Y-2034D01*
X7882Y-2423D01*
X7760Y-2806D01*
X7618Y-3183D01*
X7457Y-3552D01*
X7278Y-3913D01*
X7082Y-4264D01*
X6868Y-4606D01*
X6637Y-4935D01*
X6390Y-5253D01*
X6128Y-5559D01*
X5850Y-5850D01*
X5559Y-6128D01*
X5253Y-6390D01*
X4935Y-6637D01*
X4606Y-6868D01*
X4264Y-7082D01*
X3913Y-7278D01*
X3552Y-7457D01*
X3183Y-7618D01*
X2806Y-7760D01*
X2423Y-7882D01*
X2034Y-7986D01*
X1640Y-8070D01*
X1243Y-8134D01*
X843Y-8178D01*
X500Y-8200D01*
Y-5800D01*
X788Y-5768D01*
X1055Y-5726D01*
X1320Y-5672D01*
X1581Y-5605D01*
X1840Y-5526D01*
X2094Y-5435D01*
X2344Y-5332D01*
X2589Y-5218D01*
X2829Y-5092D01*
X3062Y-4956D01*
X3289Y-4809D01*
X3508Y-4651D01*
X3720Y-4483D01*
X3924Y-4306D01*
X4119Y-4119D01*
X4306Y-3924D01*
X4483Y-3720D01*
X4651Y-3508D01*
X4809Y-3289D01*
X4956Y-3062D01*
X5092Y-2829D01*
X5218Y-2589D01*
X5332Y-2344D01*
X5435Y-2094D01*
X5526Y-1840D01*
X5605Y-1581D01*
X5672Y-1320D01*
X5726Y-1055D01*
X5768Y-788D01*
X5800Y-500D01*
X8200D01*
X8178Y-843D01*
D02*
G37*
G36*
X-5768Y-788D02*
X-5726Y-1055D01*
X-5672Y-1320D01*
X-5605Y-1581D01*
X-5526Y-1840D01*
X-5435Y-2094D01*
X-5332Y-2344D01*
X-5218Y-2589D01*
X-5092Y-2829D01*
X-4956Y-3062D01*
X-4809Y-3289D01*
X-4651Y-3508D01*
X-4483Y-3720D01*
X-4306Y-3924D01*
X-4119Y-4119D01*
X-3924Y-4306D01*
X-3720Y-4483D01*
X-3508Y-4651D01*
X-3289Y-4809D01*
X-3062Y-4956D01*
X-2829Y-5092D01*
X-2589Y-5218D01*
X-2344Y-5332D01*
X-2094Y-5435D01*
X-1840Y-5526D01*
X-1581Y-5605D01*
X-1320Y-5672D01*
X-1055Y-5726D01*
X-788Y-5768D01*
X-500Y-5800D01*
Y-8200D01*
X-843Y-8178D01*
X-1243Y-8134D01*
X-1640Y-8070D01*
X-2034Y-7986D01*
X-2423Y-7882D01*
X-2806Y-7760D01*
X-3183Y-7618D01*
X-3552Y-7457D01*
X-3913Y-7278D01*
X-4264Y-7082D01*
X-4606Y-6868D01*
X-4935Y-6637D01*
X-5253Y-6390D01*
X-5559Y-6128D01*
X-5850Y-5850D01*
X-6128Y-5559D01*
X-6390Y-5253D01*
X-6637Y-4935D01*
X-6868Y-4606D01*
X-7082Y-4264D01*
X-7278Y-3913D01*
X-7457Y-3552D01*
X-7618Y-3183D01*
X-7760Y-2806D01*
X-7882Y-2423D01*
X-7986Y-2034D01*
X-8070Y-1640D01*
X-8134Y-1243D01*
X-8178Y-843D01*
X-8200Y-500D01*
X-5800D01*
X-5768Y-788D01*
D02*
G37*
G36*
X27250Y-13250D02*
X24250D01*
Y-8250D01*
X27250D01*
Y-13250D01*
D02*
G37*
G36*
X20750D02*
X17750D01*
Y-8250D01*
X20750D01*
Y-13250D01*
D02*
G37*
G36*
X14250D02*
X11250D01*
Y-8250D01*
X14250D01*
Y-13250D01*
D02*
G37*
D13*
X25000Y25000D02*
D03*
X15000D02*
D03*
Y-27500D02*
D03*
X25000D02*
D03*
X2500D02*
D03*
X-7500D02*
D03*
D14*
X45000Y-17500D02*
D03*
Y-27500D02*
D03*
D15*
X33000Y-44750D02*
D03*
X-33000D02*
D03*
D16*
X20000Y-70000D02*
D03*
X-20000D02*
D03*
X10000D02*
D03*
X0D02*
D03*
X-10000D02*
D03*
M02*
