G04*
G04 #@! TF.GenerationSoftware,Altium Limited,Altium Designer,20.2.3 (150)*
G04*
G04 Layer_Physical_Order=1*
G04 Layer_Color=204*
%FSLAX44Y44*%
%MOMM*%
G71*
G04*
G04 #@! TF.SameCoordinates,D726A9E5-FFE7-4BE0-B253-410C82E39F17*
G04*
G04*
G04 #@! TF.FilePolarity,Positive*
G04*
G01*
G75*
%ADD10C,0.2000*%
%ADD13R,0.5000X0.6000*%
%ADD14R,0.6000X0.5000*%
%ADD15R,1.2000X1.8000*%
%ADD16R,0.6000X1.5500*%
%ADD24C,0.1500*%
%ADD25R,0.4000X0.6000*%
%ADD26R,0.1000X0.1000*%
%ADD27C,0.5000*%
%ADD28C,0.6000*%
G36*
X-0Y110000D02*
X0Y110000D01*
X4322D01*
X12939Y109322D01*
X21477Y107970D01*
X29881Y105952D01*
X38102Y103281D01*
X46088Y99973D01*
X53790Y96049D01*
X61160Y91532D01*
X68153Y86452D01*
X74726Y80838D01*
X80838Y74726D01*
X86452Y68153D01*
X91532Y61160D01*
X96049Y53790D01*
X99973Y46088D01*
X103281Y38102D01*
X105952Y29881D01*
X107643Y22837D01*
X106809Y21879D01*
X105524Y22006D01*
X101231Y21583D01*
X97102Y20331D01*
X93298Y18297D01*
X89963Y15560D01*
X87227Y12226D01*
X85193Y8421D01*
X83941Y4293D01*
X83518Y0D01*
X83941Y-4293D01*
X85193Y-8421D01*
X87227Y-12226D01*
X89963Y-15560D01*
X93298Y-18297D01*
X97102Y-20331D01*
X101231Y-21583D01*
X105524Y-22006D01*
X106768Y-21883D01*
X107622Y-22823D01*
X106969Y-26182D01*
X103966Y-36317D01*
X100006Y-46117D01*
X95124Y-55492D01*
X89365Y-64356D01*
X82784Y-72628D01*
X75440Y-80230D01*
X67400Y-87093D01*
X58740Y-93153D01*
X49539Y-98356D01*
X39882Y-102652D01*
X29857Y-106003D01*
X19556Y-108377D01*
X10244Y-109599D01*
X9938Y-107272D01*
X8910Y-104791D01*
X7275Y-102660D01*
X5144Y-101025D01*
X2663Y-99997D01*
X0Y-99647D01*
X-2662Y-99997D01*
X-5144Y-101025D01*
X-7274Y-102660D01*
X-8909Y-104791D01*
X-9937Y-107272D01*
X-10244Y-109599D01*
X-19556Y-108377D01*
X-29856Y-106003D01*
X-39881Y-102652D01*
X-49539Y-98356D01*
X-58740Y-93153D01*
X-67400Y-87093D01*
X-75440Y-80230D01*
X-82784Y-72628D01*
X-89365Y-64357D01*
X-95124Y-55493D01*
X-100006Y-46117D01*
X-103966Y-36317D01*
X-106969Y-26182D01*
X-107622Y-22823D01*
X-106768Y-21883D01*
X-105524Y-22006D01*
X-101231Y-21583D01*
X-97103Y-20331D01*
X-93298Y-18297D01*
X-89963Y-15560D01*
X-87227Y-12226D01*
X-85193Y-8421D01*
X-83941Y-4293D01*
X-83518Y0D01*
X-83941Y4293D01*
X-85193Y8421D01*
X-87227Y12226D01*
X-89963Y15560D01*
X-93298Y18297D01*
X-97103Y20331D01*
X-101231Y21583D01*
X-105524Y22006D01*
X-106809Y21879D01*
X-107643Y22837D01*
X-105952Y29881D01*
X-103281Y38102D01*
X-99973Y46088D01*
X-96049Y53790D01*
X-91532Y61160D01*
X-86452Y68153D01*
X-80838Y74726D01*
X-74726Y80838D01*
X-68153Y86452D01*
X-61160Y91532D01*
X-53790Y96049D01*
X-46088Y99973D01*
X-38102Y103281D01*
X-29881Y105952D01*
X-21477Y107970D01*
X-12939Y109322D01*
X-4322Y110000D01*
X-0D01*
X-0Y110000D01*
D02*
G37*
%LPC*%
G36*
X18700Y29200D02*
X11300D01*
Y27243D01*
X-7197D01*
Y27273D01*
X-10138Y26983D01*
X-12966Y26125D01*
X-15572Y24732D01*
X-17850Y22863D01*
X-17857Y22857D01*
X-19732Y20572D01*
X-21125Y17966D01*
X-21983Y15138D01*
X-22273Y12197D01*
X-22243D01*
Y-61050D01*
X-24200D01*
Y-78950D01*
X-15800D01*
Y-61050D01*
X-17757D01*
Y12197D01*
X-17761Y12216D01*
X-17403Y14932D01*
X-16348Y17480D01*
X-14681Y19653D01*
X-14664Y19664D01*
X-14662Y19667D01*
X-14658Y19670D01*
X-14649Y19684D01*
X-12480Y21348D01*
X-9932Y22403D01*
X-7216Y22761D01*
X-7197Y22757D01*
X10402D01*
X11300Y21859D01*
X11300Y20800D01*
X11546Y19530D01*
X10876Y18526D01*
X10440Y16336D01*
X10507D01*
Y14950D01*
X9550D01*
Y7126D01*
X9533Y6531D01*
X8721Y5623D01*
X8445Y5509D01*
X8001Y4437D01*
X8246Y3845D01*
X8140Y3796D01*
X8742Y2342D01*
X9050Y0D01*
X8742Y-2342D01*
X8140Y-3796D01*
X8246Y-3845D01*
X8001Y-4437D01*
X8445Y-5509D01*
X8721Y-5623D01*
X9533Y-6531D01*
X9550Y-7126D01*
Y-14950D01*
X10762D01*
Y-17586D01*
X10695D01*
X11111Y-19679D01*
X12297Y-21453D01*
X12297Y-21453D01*
X12677Y-22151D01*
X12627Y-22345D01*
X11743Y-23300D01*
X11300D01*
Y-31700D01*
X15743D01*
X16254Y-32970D01*
X16211Y-33012D01*
X6289D01*
X6232Y-32957D01*
X6200Y-31700D01*
X6200Y-31700D01*
Y-23300D01*
X-1200D01*
Y-31700D01*
X-476D01*
X463Y-32500D01*
X808Y-34236D01*
X1792Y-35708D01*
X3264Y-36692D01*
X5000Y-37037D01*
Y-36988D01*
X17500D01*
Y-37037D01*
X18269Y-36884D01*
X19593Y-37803D01*
X19676Y-38272D01*
X17417Y-41025D01*
X17407Y-41031D01*
X16094Y-42344D01*
X16061Y-42311D01*
X13244Y-45609D01*
X10978Y-49307D01*
X9318Y-53315D01*
X8305Y-57532D01*
X8028Y-61050D01*
X5800D01*
Y-78950D01*
X14200D01*
Y-61050D01*
X12988D01*
X12135Y-60109D01*
X12418Y-57244D01*
X13763Y-52809D01*
X15948Y-48721D01*
X18835Y-45203D01*
X18906Y-45156D01*
X20219Y-43843D01*
X20271Y-43895D01*
X23154Y-40381D01*
X24530Y-37807D01*
X25800Y-38125D01*
Y-54950D01*
X40200D01*
Y-34550D01*
X26916D01*
X26159Y-33530D01*
X26616Y-32023D01*
X26648Y-31700D01*
X28700D01*
Y-23300D01*
X21988D01*
Y-15987D01*
X22550Y-14950D01*
X23720Y-14950D01*
X28950D01*
Y-12738D01*
X33477D01*
Y-12745D01*
X35943Y-13070D01*
X38241Y-14022D01*
X40209Y-15532D01*
X40214Y-15536D01*
X40800Y-16563D01*
Y-21200D01*
X49200D01*
Y-13800D01*
X44112D01*
X43031Y-12719D01*
X43086Y-12664D01*
X42098Y-11906D01*
X40272Y-10504D01*
X36994Y-9147D01*
X33477Y-8684D01*
Y-8762D01*
X28950D01*
Y-6550D01*
X22550Y-6550D01*
X21280Y-6550D01*
X16050D01*
Y-6550D01*
X15950D01*
Y-6550D01*
X11206D01*
X11206Y-6550D01*
X11070Y-6219D01*
X10795Y-5034D01*
Y-5034D01*
X10795Y-5034D01*
X11594Y-3106D01*
X12003Y0D01*
X11594Y3106D01*
X10795Y5034D01*
X10795Y5034D01*
Y5034D01*
X11070Y6219D01*
X11206Y6550D01*
X11206Y6550D01*
X15750D01*
Y6250D01*
X18250D01*
Y10750D01*
Y15250D01*
X15819D01*
X15081Y16243D01*
X15395Y17105D01*
X15395Y17105D01*
X16825Y19244D01*
X17134Y20800D01*
X18700D01*
Y29200D01*
D02*
G37*
G36*
X29000Y29500D02*
X26000D01*
Y26000D01*
X29000D01*
Y29500D01*
D02*
G37*
G36*
X24000D02*
X21000D01*
Y26000D01*
X24000D01*
Y29500D01*
D02*
G37*
G36*
X29000Y24000D02*
X26000D01*
Y20500D01*
X29000D01*
Y24000D01*
D02*
G37*
G36*
X24000D02*
X21000D01*
Y20500D01*
X24000D01*
Y24000D01*
D02*
G37*
G36*
X26750Y15250D02*
Y11750D01*
X29250D01*
Y15250D01*
X26750D01*
D02*
G37*
G36*
X0Y12003D02*
X-3106Y11594D01*
X-5034Y10795D01*
X-5034Y10795D01*
X-5509Y10588D01*
X-5953Y9516D01*
X-5509Y8445D01*
X-4437Y8001D01*
X-3845Y8246D01*
X-3796Y8140D01*
X-2342Y8742D01*
X0Y9050D01*
X2342Y8742D01*
X3796Y8140D01*
X3845Y8246D01*
X4437Y8001D01*
X5509Y8445D01*
X5953Y9516D01*
X5509Y10588D01*
X5034Y10795D01*
X5034Y10795D01*
X3106Y11594D01*
X0Y12003D01*
D02*
G37*
G36*
X29250Y9750D02*
X26750D01*
Y6250D01*
X29250D01*
Y9750D01*
D02*
G37*
G36*
X20250Y15250D02*
Y10750D01*
Y6250D01*
X24750D01*
Y10750D01*
Y15250D01*
X20250D01*
D02*
G37*
G36*
X0Y3772D02*
X-1444Y3485D01*
X-2668Y2668D01*
X-2722Y2585D01*
X-3750Y2000D01*
X-4750D01*
Y0D01*
Y-2000D01*
X-3750D01*
X-2722Y-2585D01*
X-2668Y-2668D01*
X-1444Y-3485D01*
X0Y-3772D01*
X1444Y-3485D01*
X2668Y-2668D01*
X3485Y-1444D01*
X3772Y0D01*
X3485Y1444D01*
X2668Y2668D01*
X1444Y3485D01*
X0Y3772D01*
D02*
G37*
G36*
X-9516Y5953D02*
X-10588Y5509D01*
X-10795Y5034D01*
X-10795Y5034D01*
X-11594Y3106D01*
X-12003Y0D01*
X-11594Y-3106D01*
X-10795Y-5034D01*
X-10795Y-5034D01*
X-10588Y-5509D01*
X-9516Y-5953D01*
X-8445Y-5509D01*
X-8001Y-4437D01*
X-8246Y-3845D01*
X-8140Y-3796D01*
X-8484Y-2966D01*
X-7894Y-2381D01*
X-7971Y-2122D01*
X-8071Y-1705D01*
X-8149Y-1283D01*
X-8205Y-857D01*
X-8239Y-429D01*
X-8250Y0D01*
Y100D01*
X-8239Y524D01*
X-8206Y947D01*
X-8150Y1367D01*
X-8073Y1784D01*
X-7974Y2196D01*
X-7914Y2401D01*
X-8484Y2966D01*
X-8140Y3796D01*
X-8246Y3845D01*
X-8001Y4437D01*
X-8445Y5509D01*
X-9516Y5953D01*
D02*
G37*
G36*
X4437Y-8001D02*
X3845Y-8246D01*
X3796Y-8140D01*
X2342Y-8742D01*
X0Y-9050D01*
X-2342Y-8742D01*
X-3796Y-8140D01*
X-3845Y-8246D01*
X-4437Y-8001D01*
X-5509Y-8445D01*
X-5953Y-9516D01*
X-5509Y-10588D01*
X-5034Y-10795D01*
X-5034Y-10795D01*
X-3106Y-11594D01*
X0Y-12003D01*
X3106Y-11594D01*
X5034Y-10795D01*
X5034Y-10795D01*
X5509Y-10588D01*
X5953Y-9516D01*
X5509Y-8445D01*
X4437Y-8001D01*
D02*
G37*
G36*
X-25800Y-34550D02*
X-40200D01*
Y-54950D01*
X-25800D01*
Y-34550D01*
D02*
G37*
G36*
X49200Y-23800D02*
X40800D01*
Y-31200D01*
X43012D01*
Y-52929D01*
X42996D01*
X42706Y-55868D01*
X41849Y-58695D01*
X40456Y-61300D01*
X38583Y-63583D01*
X36300Y-65456D01*
X33695Y-66849D01*
X30868Y-67706D01*
X27929Y-67996D01*
Y-68012D01*
X24200D01*
Y-61050D01*
X15800D01*
Y-78950D01*
X24200D01*
Y-71988D01*
X27929D01*
Y-72042D01*
X31658Y-71675D01*
X35243Y-70587D01*
X38548Y-68821D01*
X41434Y-66452D01*
X41444Y-66444D01*
X43821Y-63548D01*
X45587Y-60243D01*
X46675Y-56658D01*
X47042Y-52929D01*
X46988D01*
Y-31200D01*
X49200D01*
Y-23800D01*
D02*
G37*
G36*
X-5500Y-60750D02*
X-9000D01*
Y-69000D01*
X-5500D01*
Y-60750D01*
D02*
G37*
G36*
X-11000D02*
X-14500D01*
Y-69000D01*
X-11000D01*
Y-60750D01*
D02*
G37*
G36*
X-3800Y-23300D02*
X-11200D01*
Y-31700D01*
X-9488D01*
Y-36465D01*
X-9540D01*
X-9180Y-39202D01*
X-8123Y-41752D01*
X-6443Y-43943D01*
X-6443D01*
X-6395Y-43945D01*
X-4544Y-46200D01*
X-3151Y-48805D01*
X-2294Y-51632D01*
X-2004Y-54571D01*
X-1988D01*
Y-61050D01*
X-4200D01*
Y-78950D01*
X4200D01*
Y-61050D01*
X1988D01*
Y-54571D01*
X2042D01*
X1675Y-50842D01*
X587Y-47257D01*
X-1179Y-43952D01*
X-3556Y-41056D01*
X-3556Y-41056D01*
X-4305Y-40096D01*
X-5048Y-38984D01*
X-5531Y-36559D01*
X-5512Y-36465D01*
Y-31700D01*
X-3800D01*
Y-23300D01*
D02*
G37*
G36*
X-5500Y-71000D02*
X-9000D01*
Y-79250D01*
X-5500D01*
Y-71000D01*
D02*
G37*
G36*
X-11000D02*
X-14500D01*
Y-79250D01*
X-11000D01*
Y-71000D01*
D02*
G37*
%LPD*%
D10*
X13750Y18750D02*
G03*
X12750Y16336I2414J-2414D01*
G01*
X13750Y18750D02*
G03*
X15000Y21768I-3018J3018D01*
G01*
X-16250Y21250D02*
G03*
X-20000Y12197I9053J-9053D01*
G01*
X-16244Y21256D02*
G03*
X-16250Y21250I9047J-9059D01*
G01*
X-7197Y25000D02*
G03*
X-16244Y21256I0J-12803D01*
G01*
X12750Y10750D02*
Y16336D01*
X-7197Y25000D02*
X15000D01*
X13750Y18750D02*
X13750Y18750D01*
X15000Y21768D02*
Y25000D01*
X-20000Y-70000D02*
Y12197D01*
D13*
X25000Y25000D02*
D03*
X15000D02*
D03*
Y-27500D02*
D03*
X25000D02*
D03*
X2500D02*
D03*
X-7500D02*
D03*
D14*
X45000Y-17500D02*
D03*
Y-27500D02*
D03*
D15*
X33000Y-44750D02*
D03*
X-33000D02*
D03*
D16*
X20000Y-70000D02*
D03*
X-20000D02*
D03*
X10000D02*
D03*
X0D02*
D03*
X-10000D02*
D03*
D24*
X17500Y-43750D02*
G03*
X10000Y-61857I18107J-18107D01*
G01*
X18813Y-42437D02*
G03*
X25000Y-27500I-14937J14937D01*
G01*
X12750Y-17586D02*
G03*
X13750Y-20000I3414J0D01*
G01*
X15000Y-23018D02*
G03*
X13750Y-20000I-4268J0D01*
G01*
X0Y-54571D02*
G03*
X-5000Y-42500I-17071J0D01*
G01*
X-7500Y-36465D02*
G03*
X-5000Y-42500I8536J0D01*
G01*
X20000Y-11500D02*
G03*
X19250Y-10750I-750J0D01*
G01*
X17500Y-35000D02*
G03*
X20000Y-32500I0J2500D01*
G01*
X2500D02*
G03*
X5000Y-35000I2500J0D01*
G01*
X41620Y-14120D02*
G03*
X33477Y-10750I-8143J-8153D01*
G01*
X41625Y-14125D02*
G03*
X41620Y-14120I-8148J-8148D01*
G01*
X27929Y-70000D02*
G03*
X39992Y-65008I0J17071D01*
G01*
X40000Y-65000D02*
G03*
X45000Y-52929I-12071J12071D01*
G01*
X39992Y-65008D02*
G03*
X40000Y-65000I-12063J12079D01*
G01*
X17500Y-43750D02*
X18813Y-42437D01*
X10000Y-70000D02*
Y-61857D01*
X12750Y-17586D02*
Y-10750D01*
X15000Y-27500D02*
Y-23018D01*
X0Y-70000D02*
Y-54571D01*
X-7500Y-36465D02*
Y-27500D01*
X20000Y-32500D02*
Y-11500D01*
X5000Y-35000D02*
X17500D01*
X2500Y-32500D02*
Y-27500D01*
X41625Y-14125D02*
X45000Y-17500D01*
X25750Y-10750D02*
X33477D01*
X45000Y-52929D02*
Y-27500D01*
X20000Y-70000D02*
X27929D01*
D25*
X25750Y10750D02*
D03*
X19250D02*
D03*
X12750D02*
D03*
X25750Y-10750D02*
D03*
X19250D02*
D03*
X12750D02*
D03*
D26*
X-5750Y0D02*
D03*
D27*
X0D02*
D03*
D28*
X35000Y-20000D02*
D03*
X20000Y-55000D02*
D03*
X-10000D02*
D03*
X5000Y-45000D02*
D03*
X20000Y0D02*
D03*
X30000Y35000D02*
D03*
X0D02*
D03*
X30000Y60000D02*
D03*
X0D02*
D03*
X-30000D02*
D03*
X-60000Y-30000D02*
D03*
Y-60000D02*
D03*
X-30000Y-90000D02*
D03*
X0D02*
D03*
X30000D02*
D03*
X60000Y-60000D02*
D03*
Y-30000D02*
D03*
Y0D02*
D03*
Y30000D02*
D03*
X-30000D02*
D03*
X-60000D02*
D03*
Y0D02*
D03*
X-30000D02*
D03*
M02*
