M48
;Layer_Color=8757620
;FILE_FORMAT=4:4
METRIC,LZ
;TYPE=PLATED
T1F00S00C0.3000
;TYPE=NON_PLATED
T2F00S00C0.5000
%
T01
X-0006Y-0006
Y-0003
Y0
Y0003
X-0003
Y0
X0002
X00035Y-0002
X0006Y-0003
Y0
Y0003
X0003Y00035
Y0006
X0
Y00035
X-0003Y0006
X-0001Y-00055
X00005Y-00045
X0002Y-00055
X0003Y-0009
X0
X-0003
X0006Y-0006
T02
X0Y0
M30
